<?xml version="1.0" encoding="UTF-8" standalone="no"?>
<!-- Created with Inkscape (http://www.inkscape.org/) -->

<svg
   width="91.677704mm"
   height="14.336761mm"
   viewBox="0 0 91.677704 14.336761"
   version="1.1"
   id="svg1"
   inkscape:version="1.3.2 (091e20e, 2023-11-25, custom)"
   sodipodi:docname="logo.svg.2024_06_13_15_54_32.0.svg"
   xml:space="preserve"
   inkscape:export-filename="header-logo-dark.svg"
   inkscape:export-xdpi="96"
   inkscape:export-ydpi="96"
   xmlns:inkscape="http://www.inkscape.org/namespaces/inkscape"
   xmlns:sodipodi="http://sodipodi.sourceforge.net/DTD/sodipodi-0.dtd"
   xmlns="http://www.w3.org/2000/svg"
   xmlns:svg="http://www.w3.org/2000/svg"><sodipodi:namedview
     id="namedview1"
     pagecolor="#ffffff"
     bordercolor="#000000"
     borderopacity="0.25"
     inkscape:showpageshadow="2"
     inkscape:pageopacity="0.0"
     inkscape:pagecheckerboard="0"
     inkscape:deskcolor="#d1d1d1"
     inkscape:document-units="mm"
     inkscape:zoom="2.4007079"
     inkscape:cx="52.276248"
     inkscape:cy="1131.7495"
     inkscape:window-width="2880"
     inkscape:window-height="1690"
     inkscape:window-x="-12"
     inkscape:window-y="-12"
     inkscape:window-maximized="1"
     inkscape:current-layer="svg1"
     showgrid="false"
     showguides="true"><inkscape:grid
       id="grid3"
       units="mm"
       originx="396.85039"
       originy="561.25984"
       spacingx="0.99999998"
       spacingy="1"
       empcolor="#0099e5"
       empopacity="0.30196078"
       color="#0099e5"
       opacity="0.14901961"
       empspacing="5"
       dotted="false"
       gridanglex="30"
       gridanglez="30"
       visible="false" /><sodipodi:guide
       position="-2.2215672,295.56026"
       orientation="0,-1"
       id="guide6"
       inkscape:locked="false" /><sodipodi:guide
       position="48.921613,227.7066"
       orientation="0,-1"
       id="guide7"
       inkscape:locked="false" /></sodipodi:namedview><defs
     id="defs1" /><path
     id="rect6-3-5-5"
     style="fill:#f9f9f9;fill-opacity:1;stroke-width:0.183088"
     inkscape:label="rect6-3-5"
     d="M -4.0186632e-6,2.5860409e-6 V 14.336773 H 16.699792 V 2.5860409e-6 Z M 3.340093,3.5843826 h 6.679503 3.45e-4 a 3.3399427,3.5842138 0 0 1 3.340092,3.58401 3.3399427,3.5842138 0 0 1 -0.0022,0.0296 h 0.0022 V 10.752743 H 10.019941 V 7.1683626 H 6.68019 V 10.752743 H 3.340093 Z m 21.21928,2.14348 -2.24738,4.9039504 h 2.24738 V 8.1797126 h 2.247148 v 2.4521004 h 2.247383 V 8.1999826 h -10e-4 a 2.2472772,2.451988 0 0 0 10e-4,-0.0203 2.2472772,2.451988 0 0 0 -2.247383,-2.45185 h -2.31e-4 z m 9.541611,3.06949 c -1.13276,0 -1.96479,-0.65159 -1.96479,-1.60391 0,-0.96234 0.84205,-1.63398 1.96479,-1.63398 h 3.3682 l 1.33325,-1.74424 h -4.70145 c -2.32567,0 -4.03984,1.32322 -4.03984,3.288 0,1.94474 1.71417,3.4183204 4.03984,3.4183204 h 3.3682 l 1.33325,-1.7241904 z m 9.63121,-5.0924 c -3.26795,0 -4.90193,1.06259 -4.90193,3.45842 0,2.39583 1.63398,3.4684404 4.90193,3.4684404 3.25793,0 4.90193,-1.0726104 4.90193,-3.4684404 0,-2.39583 -1.644,-3.45842 -4.90193,-3.45842 z m 0,5.18262 c -2.08508,0 -2.83691,-0.28069 -2.83691,-1.7242 0,-1.44352 0.75183,-1.71417 2.83691,-1.71417 2.08508,0 2.83691,0.27065 2.83691,1.71417 0,1.44351 -0.75183,1.7242 -2.83691,1.7242 z m 12.26763,1.7442404 c 0.60146,0 1.14278,-0.3709 1.14278,-1.2630704 v -5.55352 h -1.89461 v 3.93959 l -4.11001,-3.68898 c -0.3308,-0.30073 -0.58141,-0.36088 -0.83202,-0.36088 -0.59144,0 -1.13276,0.36088 -1.13276,1.25305 v 5.5635404 h 1.88459 V 6.5819526 l 4.11,3.6889804 c 0.32078,0.30073 0.57139,0.36088 0.83203,0.36088 z m 8.67888,0 c 0.60146,0 1.14278,-0.3709 1.14278,-1.2630704 v -5.55352 h -1.89462 v 3.93959 l -4.11,-3.68898 c -0.3308,-0.30073 -0.58141,-0.36088 -0.83202,-0.36088 -0.59144,0 -1.13276,0.36088 -1.13276,1.25305 v 5.5635404 h 1.88459 V 6.5819526 l 4.11,3.6889804 c 0.32078,0.30073 0.5714,0.36088 0.83203,0.36088 z m 3.96741,-1.8344604 v -0.91223 h 4.12003 l 1.19291,-1.5237 h -5.31294 v -0.80196 h 4.34056 l 1.34328,-1.74424 h -7.76891 v 6.7063204 h 6.45571 l 1.33325,-1.7241904 z m 9.76152,0 c -1.13276,0 -1.96479,-0.65159 -1.96479,-1.60391 0,-0.96234 0.84206,-1.63398 1.96479,-1.63398 h 3.3682 l 1.33325,-1.74424 h -4.70145 c -2.32566,0 -4.03983,1.32322 -4.03983,3.288 0,1.94474 1.71417,3.4183204 4.03983,3.4183204 h 3.3682 l 1.33325,-1.7241904 z m 5.65152,-4.98213 -1.34327,1.74424 h 3.14767 v 4.9620804 h 2.07504 V 5.5594626 h 2.39584 l 1.34327,-1.74424 z"
     inkscape:export-filename="..\nconnect-frontend\src\assets\images\logo-with-text.svg"
     inkscape:export-xdpi="96"
     inkscape:export-ydpi="96" /></svg>
