<?xml version="1.0" encoding="UTF-8" standalone="no"?>
<!-- Created with Inkscape (http://www.inkscape.org/) -->

<svg
   width="69.365685mm"
   height="6.9268494mm"
   viewBox="0 0 69.365685 6.9268494"
   version="1.1"
   id="svg1"
   inkscape:version="1.3.2 (091e20e, 2023-11-25, custom)"
   sodipodi:docname="logo.svg.2024_06_13_15_54_32.0.svg"
   xml:space="preserve"
   inkscape:export-filename="header-logo-dark.svg"
   inkscape:export-xdpi="96"
   inkscape:export-ydpi="96"
   xmlns:inkscape="http://www.inkscape.org/namespaces/inkscape"
   xmlns:sodipodi="http://sodipodi.sourceforge.net/DTD/sodipodi-0.dtd"
   xmlns="http://www.w3.org/2000/svg"
   xmlns:svg="http://www.w3.org/2000/svg"><sodipodi:namedview
     id="namedview1"
     pagecolor="#ffffff"
     bordercolor="#000000"
     borderopacity="0.25"
     inkscape:showpageshadow="2"
     inkscape:pageopacity="0.0"
     inkscape:pagecheckerboard="0"
     inkscape:deskcolor="#d1d1d1"
     inkscape:document-units="mm"
     inkscape:zoom="2.4007079"
     inkscape:cx="52.276248"
     inkscape:cy="1131.7495"
     inkscape:window-width="2880"
     inkscape:window-height="1690"
     inkscape:window-x="-12"
     inkscape:window-y="-12"
     inkscape:window-maximized="1"
     inkscape:current-layer="svg1"
     showgrid="false"
     showguides="true"><inkscape:grid
       id="grid3"
       units="mm"
       originx="396.85039"
       originy="561.25984"
       spacingx="0.99999998"
       spacingy="1"
       empcolor="#0099e5"
       empopacity="0.30196078"
       color="#0099e5"
       opacity="0.14901961"
       empspacing="5"
       dotted="false"
       gridanglex="30"
       gridanglez="30"
       visible="false" /><sodipodi:guide
       position="148.59094,179.14203"
       orientation="0,-1"
       id="guide6"
       inkscape:locked="false" /><sodipodi:guide
       position="199.73412,111.28836"
       orientation="0,-1"
       id="guide7"
       inkscape:locked="false" /></sodipodi:namedview><defs
     id="defs1" /><g
     id="g65"
     inkscape:export-filename="footer-logo-dark.svg"
     inkscape:export-xdpi="96"
     inkscape:export-ydpi="96"
     transform="translate(78.316667,-244.475)"><path
       style="font-size:10.0244px;font-family:Ethnocentric;-inkscape-font-specification:Ethnocentric;letter-spacing:-0.483416px;fill:#ffffff;stroke-width:0.835378"
       d="m -66.527683,249.5674 c -1.132757,0 -1.964782,-0.65159 -1.964782,-1.60391 0,-0.96234 0.842049,-1.63397 1.964782,-1.63397 h 3.368199 l 1.333245,-1.74425 h -4.701444 c -2.325661,0 -4.039833,1.32322 -4.039833,3.28801 0,1.94473 1.714172,3.41832 4.039833,3.41832 h 3.368199 l 1.333245,-1.7242 z m 9.631207,-5.0924 c -3.267954,0 -4.901931,1.06259 -4.901931,3.45842 0,2.39583 1.633977,3.46844 4.901931,3.46844 3.25793,0 4.901932,-1.07261 4.901932,-3.46844 0,-2.39583 -1.644002,-3.45842 -4.901932,-3.45842 z m 0,5.18262 c -2.085075,0 -2.836905,-0.28068 -2.836905,-1.7242 0,-1.44351 0.75183,-1.71417 2.836905,-1.71417 2.085076,0 2.836906,0.27066 2.836906,1.71417 0,1.44352 -0.75183,1.7242 -2.836906,1.7242 z m 12.267624,1.74424 c 0.601464,0 1.142781,-0.3709 1.142781,-1.26307 v -5.55352 h -1.894611 v 3.93959 l -4.110004,-3.68898 c -0.330805,-0.30073 -0.581415,-0.36088 -0.832025,-0.36088 -0.59144,0 -1.132757,0.36088 -1.132757,1.25305 v 5.56355 h 1.884587 v -3.93959 l 4.110004,3.68898 c 0.32078,0.30073 0.57139,0.36087 0.832025,0.36087 z m 8.67888,0 c 0.601464,0 1.142782,-0.3709 1.142782,-1.26307 v -5.55352 h -1.894612 v 3.93959 l -4.110003,-3.68898 c -0.330806,-0.30073 -0.581416,-0.36088 -0.832026,-0.36088 -0.591439,0 -1.132757,0.36088 -1.132757,1.25305 v 5.56355 h 1.884587 v -3.93959 l 4.110004,3.68898 c 0.320781,0.30073 0.571391,0.36087 0.832025,0.36087 z m 3.967415,-1.83446 v -0.91222 h 4.120028 l 1.192904,-1.52371 h -5.312932 v -0.80195 h 4.340565 l 1.34327,-1.74425 h -7.76891 v 6.70633 h 6.455713 l 1.333246,-1.7242 z m 9.761515,0 c -1.132757,0 -1.964782,-0.65159 -1.964782,-1.60391 0,-0.96234 0.842049,-1.63397 1.964782,-1.63397 h 3.368198 l 1.333245,-1.74425 h -4.701443 c -2.325661,0 -4.039833,1.32322 -4.039833,3.28801 0,1.94473 1.714172,3.41832 4.039833,3.41832 h 3.368198 l 1.333245,-1.7242 z m 5.651519,-4.98213 -1.343269,1.74425 h 3.147661 v 4.96208 h 2.075051 v -4.96208 h 2.395832 l 1.3432692,-1.74425 z"
       id="text1-8-5-6"
       aria-label="CONNECT" /><path
       id="rect3-5-4-1-9"
       style="fill:#ffffff;stroke-width:0.124217"
       d="m -76.069287,246.49791 -2.247381,4.90395 h 2.247381 v -2.4521 h 2.247147 v 2.4521 h 2.247382 v -2.43183 h -0.0014 a 2.2472772,2.451988 0 0 0 0.0014,-0.0203 2.2472772,2.451988 0 0 0 -2.247382,-2.45185 h -2.3e-4 z" /></g></svg>
