<?xml version="1.0" encoding="UTF-8" standalone="no"?>
<!-- Created with Inkscape (http://www.inkscape.org/) -->

<svg
   width="91.677696mm"
   height="14.336777mm"
   viewBox="0 0 91.677696 14.336777"
   version="1.1"
   id="svg1"
   inkscape:version="1.3.2 (091e20e, 2023-11-25, custom)"
   sodipodi:docname="logo.svg.2024_06_13_15_54_32.0.svg"
   xml:space="preserve"
   inkscape:export-filename="header-logo-dark.svg"
   inkscape:export-xdpi="96"
   inkscape:export-ydpi="96"
   xmlns:inkscape="http://www.inkscape.org/namespaces/inkscape"
   xmlns:sodipodi="http://sodipodi.sourceforge.net/DTD/sodipodi-0.dtd"
   xmlns="http://www.w3.org/2000/svg"
   xmlns:svg="http://www.w3.org/2000/svg"><sodipodi:namedview
     id="namedview1"
     pagecolor="#ffffff"
     bordercolor="#000000"
     borderopacity="0.25"
     inkscape:showpageshadow="2"
     inkscape:pageopacity="0.0"
     inkscape:pagecheckerboard="0"
     inkscape:deskcolor="#d1d1d1"
     inkscape:document-units="mm"
     inkscape:zoom="2.4007079"
     inkscape:cx="52.276248"
     inkscape:cy="1131.7495"
     inkscape:window-width="2880"
     inkscape:window-height="1690"
     inkscape:window-x="-12"
     inkscape:window-y="-12"
     inkscape:window-maximized="1"
     inkscape:current-layer="svg1"
     showgrid="false"
     showguides="true"><inkscape:grid
       id="grid3"
       units="mm"
       originx="396.85039"
       originy="561.25984"
       spacingx="0.99999998"
       spacingy="1"
       empcolor="#0099e5"
       empopacity="0.30196078"
       color="#0099e5"
       opacity="0.14901961"
       empspacing="5"
       dotted="false"
       gridanglex="30"
       gridanglez="30"
       visible="false" /><sodipodi:guide
       position="6.5460952,147.25899"
       orientation="0,-1"
       id="guide6"
       inkscape:locked="false" /><sodipodi:guide
       position="57.689277,79.405319"
       orientation="0,-1"
       id="guide7"
       inkscape:locked="false" /></sodipodi:namedview><defs
     id="defs1" /><path
     id="rect6-3-5"
     style="fill:#000000;fill-opacity:1;stroke-width:0.183088"
     inkscape:label="rect6-3-5"
     d="M 2.2314142e-6,-1.5556833e-6 V 14.336768 H 16.699798 V -1.5556833e-6 Z M 3.3400992,3.5843784 h 6.6795028 3.45e-4 a 3.3399427,3.5842138 0 0 1 3.340092,3.58401 3.3399427,3.5842138 0 0 1 -0.0022,0.0296 h 0.0022 V 10.752738 H 10.019947 V 7.1683584 H 6.6801962 v 3.5843796 h -3.340097 z m 21.2192798,2.14348 -2.24738,4.9039496 h 2.24738 V 8.1797084 h 2.247148 v 2.4520996 h 2.247382 V 8.1999784 h -0.0014 a 2.2472772,2.451988 0 0 0 0.0014,-0.0203 2.2472772,2.451988 0 0 0 -2.247382,-2.45185 h -2.31e-4 z m 9.541607,3.06949 c -1.132758,0 -1.964783,-0.65159 -1.964783,-1.60391 0,-0.96234 0.84205,-1.63398 1.964783,-1.63398 h 3.3682 l 1.33325,-1.74424 h -4.70145 c -2.325662,0 -4.039834,1.32322 -4.039834,3.288 0,1.94474 1.714172,3.4183196 4.039834,3.4183196 h 3.3682 l 1.33325,-1.7241896 z m 9.63121,-5.0924 c -3.26795,0 -4.90193,1.06259 -4.90193,3.45842 0,2.39583 1.63398,3.4684396 4.90193,3.4684396 3.25793,0 4.90193,-1.0726096 4.90193,-3.4684396 0,-2.39583 -1.644,-3.45842 -4.90193,-3.45842 z m 0,5.18262 c -2.08508,0 -2.83691,-0.28069 -2.83691,-1.7242 0,-1.44352 0.75183,-1.71417 2.83691,-1.71417 2.08508,0 2.83691,0.27065 2.83691,1.71417 0,1.44351 -0.75183,1.7242 -2.83691,1.7242 z m 12.26763,1.7442396 c 0.60146,0 1.14278,-0.3709 1.14278,-1.2630696 v -5.55352 h -1.89461 v 3.93959 l -4.11001,-3.68898 c -0.3308,-0.30073 -0.58141,-0.36088 -0.83202,-0.36088 -0.59144,0 -1.13276,0.36088 -1.13276,1.25305 v 5.5635396 h 1.88459 V 6.5819484 l 4.11,3.6889796 c 0.32078,0.30073 0.57139,0.36088 0.83203,0.36088 z m 8.67888,0 c 0.60146,0 1.14278,-0.3709 1.14278,-1.2630696 v -5.55352 h -1.89462 v 3.93959 l -4.11,-3.68898 c -0.3308,-0.30073 -0.58141,-0.36088 -0.83202,-0.36088 -0.59144,0 -1.13276,0.36088 -1.13276,1.25305 v 5.5635396 h 1.88459 V 6.5819484 l 4.11,3.6889796 c 0.32078,0.30073 0.5714,0.36088 0.83203,0.36088 z m 3.96741,-1.8344596 v -0.91223 h 4.12003 l 1.19291,-1.5237 h -5.31294 v -0.80196 h 4.34056 l 1.34328,-1.74424 h -7.76891 v 6.7063196 h 6.45571 l 1.33325,-1.7241896 z m 9.76152,0 c -1.13276,0 -1.96479,-0.65159 -1.96479,-1.60391 0,-0.96234 0.84206,-1.63398 1.96479,-1.63398 h 3.3682 l 1.33325,-1.74424 h -4.70145 c -2.32566,0 -4.03983,1.32322 -4.03983,3.288 0,1.94474 1.71417,3.4183196 4.03983,3.4183196 h 3.3682 l 1.33325,-1.7241896 z m 5.65152,-4.98213 -1.34327,1.74424 h 3.14767 v 4.9620796 h 2.07504 V 5.5594584 h 2.39584 l 1.34327,-1.74424 z"
     inkscape:export-filename="..\nconnect-frontend\src\assets\images\logo-with-text.svg"
     inkscape:export-xdpi="96"
     inkscape:export-ydpi="96" /></svg>
