<?xml version="1.0" encoding="UTF-8" standalone="no"?>
<!-- Created with Inkscape (http://www.inkscape.org/) -->

<svg
   width="91.677696mm"
   height="14.336771mm"
   viewBox="0 0 91.677696 14.336771"
   version="1.1"
   id="svg1"
   xml:space="preserve"
   xmlns="http://www.w3.org/2000/svg"
   xmlns:svg="http://www.w3.org/2000/svg"><defs
     id="defs1" /><g
     id="g7"
     transform="translate(-63.728176,-132.94511)"><g
       id="g6"
       transform="matrix(0.91975428,0,0,0.91975428,35.610093,77.115642)"><text
         xml:space="preserve"
         style="font-size:10.899px;letter-spacing:-0.525593px;stroke-width:0.908262"
         x="62.797436"
         y="72.139931"
         id="text1-8"><tspan
           id="tspan1-5"
           style="font-style:normal;font-variant:normal;font-weight:normal;font-stretch:normal;font-family:Ethnocentric;-inkscape-font-specification:Ethnocentric;letter-spacing:-0.525593px;stroke-width:0.908262"
           x="62.797436"
           y="72.139931">CONNECT</tspan></text><path
         id="rect3-5-4"
         style="stroke-width:0.134819;stroke-dasharray:none"
         d="m 57.273409,66.928015 -2.443458,5.331806 h 2.443458 v -2.666038 h 2.443204 v 2.666038 h 2.443459 v -2.643998 h -0.0015 a 2.4433452,2.6659164 0 0 0 0.0015,-0.02202 2.4433452,2.6659164 0 0 0 -2.443459,-2.665767 h -2.51e-4 z" /></g><path
       id="rect6-3-5"
       style="stroke-width:0.183088"
       d="m 63.728178,132.94511 v 14.33677 h 16.699796 v -14.33677 z m 3.340097,3.58438 h 6.679503 3.45e-4 a 3.3399427,3.5842138 0 0 1 3.340092,3.58401 3.3399427,3.5842138 0 0 1 -0.0022,0.0296 h 0.0022 v 3.55475 h -3.340092 v -3.58438 h -3.339751 v 3.58438 h -3.340097 z" /></g></svg>
